<?xml version="1.0" encoding="UTF-8"?>
<svg xmlns="http://www.w3.org/2000/svg" width="168" height="44" viewBox="0 0 168 44" fill="none">
  <g clip-path="url(#clip0_380_1871)">
    <g clip-path="url(#clip1_380_1871)">
      <g clip-path="url(#clip2_380_1871)">
        <path d="M50.1831 30.837C45.053 30.837 41.3438 27.1106 41.3438 21.964C41.3438 16.8357 45.0715 13.1094 50.1831 13.1094C53.8924 13.1094 55.9223 15.0647 56.3467 15.5259L54.7043 18.1639C54.2061 17.7026 52.6006 16.3929 50.4046 16.3929C47.3781 16.3929 45.1822 18.7173 45.1822 21.927C45.1822 23.4212 45.6989 24.8233 46.64 25.8562C47.6181 26.9446 49.0021 27.5349 50.5522 27.5349C52.8405 27.5349 54.6306 26.1515 55.3502 25.4873C55.5532 26.5757 55.9223 27.5718 56.4759 28.4942C55.6454 29.232 53.4864 30.837 50.1831 30.837Z" fill="white"></path>
        <path d="M104.788 30.5588C102.13 30.9277 99.5469 30.153 99.5469 26.279V12.3516H102.905V25.7625C102.905 27.2567 103.551 27.8471 104.788 27.7364V30.5588Z" fill="white"></path>
        <path d="M64.3381 16.6328C60.2229 16.6328 56.8828 19.5843 56.8828 23.7349C56.8828 27.9039 60.2045 30.8371 64.3566 30.8371C68.4718 30.8371 71.8119 27.9039 71.8119 23.7349C71.8119 19.5843 68.4902 16.6328 64.3381 16.6328ZM64.375 27.9593C62.1606 27.9593 60.3337 26.2622 60.3337 23.7349C60.3337 21.2446 62.1791 19.5106 64.375 19.5106C66.5526 19.5106 68.398 21.2446 68.398 23.7349C68.3795 26.2622 66.5526 27.9593 64.375 27.9593Z" fill="white"></path>
        <path d="M81.7024 16.8158V20.1364C77.9378 19.4353 76.9044 23.18 76.9044 25.1355V30.5035H73.5273V16.9449H76.7752V20.1547C77.3842 18.2179 79.6356 16.3915 81.7024 16.8158Z" fill="white"></path>
        <path d="M93.5504 16.9454V18.0891C92.3695 17.1483 90.8562 16.6133 89.2692 16.6133C85.0987 16.6133 82.0723 19.6017 82.0723 23.7339C82.0723 25.597 82.755 27.331 83.9914 28.6408C85.3016 30.0427 87.1655 30.799 89.2323 30.799C90.93 30.799 92.3695 30.3194 93.5504 29.3786V30.4855H96.7983V16.9269H93.5504V16.9454ZM89.546 27.9029C87.3316 27.9029 85.5046 26.2058 85.5046 23.6785C85.5046 21.1698 87.3316 19.4542 89.546 19.4542C91.7235 19.4542 93.5689 21.1882 93.5689 23.6785C93.5689 26.1873 91.7235 27.9029 89.546 27.9029Z" fill="white"></path>
        <path d="M107.408 25.6163C107.408 30.2649 110.49 31.1503 112.558 30.7445V29.7115C110.989 29.9513 108.589 29.2872 108.589 25.5978V18.1452H112.262V17.0753H108.589V13.2383H107.408V25.6163Z" fill="white"></path>
        <path d="M120.898 18.1267C118.019 17.5733 115.658 20.8753 115.658 24.6016V30.6707H114.477V17.0937H115.658V20.5064C116.377 18.4219 118.241 16.4295 120.898 16.9461V18.1267Z" fill="white"></path>
        <path d="M167.753 30.782C166.534 31.0034 164.504 30.5238 164.504 27.9044V12.5195H165.667V27.6092C165.667 29.5646 166.719 29.8228 167.753 29.6937V30.782Z" fill="white"></path>
        <path d="M133.632 17.1128V20.1197C132.451 18.1459 130.329 16.873 127.763 16.873C123.778 16.873 120.641 19.9721 120.641 23.9567C120.641 25.8937 121.36 27.683 122.671 28.9743C123.999 30.3025 125.808 31.0219 127.763 31.0219C129.72 31.0219 131.51 30.3025 132.838 28.9743C133.152 28.6607 133.411 28.3287 133.632 27.9781V30.6899H134.813V17.1128H133.632ZM127.782 29.9889C124.423 29.9889 121.895 27.3879 121.895 23.9567C121.895 20.5809 124.479 17.9245 127.782 17.9245C130.993 17.9245 133.521 20.4517 133.65 23.7169V24.1966C133.521 27.4985 131.049 29.9889 127.782 29.9889Z" fill="white"></path>
        <path d="M155.739 16.6875C151.754 16.6875 149.004 19.8235 149.004 23.845C149.004 25.8004 149.724 27.6082 151.034 28.9364C152.362 30.283 154.152 31.0024 156.127 31.0024C158.009 31.0024 159.762 30.3199 161.054 29.047L160.408 28.0694C159.356 29.2315 157.843 29.9325 156.109 29.9325C152.75 29.9325 150.222 27.3131 150.222 23.845H161.792C162.235 19.6206 159.652 16.6875 155.739 16.6875ZM155.739 17.739C158.673 17.739 160.648 19.9527 160.611 22.7751H150.314C150.72 19.8789 152.786 17.739 155.739 17.739Z" fill="white"></path>
        <path d="M147.287 17.1133L143.136 27.665C142.877 28.3475 142.656 29.1777 142.656 29.1777H142.6C142.6 29.1777 142.378 28.3475 142.121 27.665L137.968 17.1133H136.713L142.065 30.6904H143.19L148.506 17.1133H147.287Z" fill="white"></path>
        <path d="M5.18542 34.582C8.43329 37.8657 12.936 39.8948 17.9 39.8948C22.8642 39.8948 27.3669 37.8657 30.6147 34.582H5.18542Z" fill="#0077B1"></path>
        <path d="M0.627075 26.7227C1.45749 29.7296 3.04452 32.4228 5.1667 34.5811H30.596C32.7367 32.4228 34.3236 29.7296 35.1356 26.7227H0.627075Z" fill="#78ABDC"></path>
        <path d="M0 22.0006C0 23.6424 0.221446 25.2104 0.627428 26.723H35.1544C35.5604 25.2104 35.7819 23.6424 35.7819 22.0006C35.7819 21.1336 35.7081 20.2666 35.5973 19.418H0.184538C0.0738151 20.2666 0 21.1336 0 22.0006Z" fill="#E84E0F"></path>
        <path d="M2.13969 13.5156C1.16165 15.3234 0.497307 17.3157 0.183594 19.4186H35.5964C35.2826 17.3157 34.6184 15.3234 33.6403 13.5156H2.13969Z" fill="#FAB60D"></path>
        <path d="M29.9878 8.82986C26.8138 5.89678 22.5694 4.10742 17.9006 4.10742C13.2318 4.10742 8.98743 5.89678 5.79492 8.82986H29.9878Z" fill="#EE762D"></path>
        <path d="M2.14062 13.5137H33.6412C32.6816 11.7428 31.4452 10.1563 29.9874 8.82812H5.79448C4.33662 10.1748 3.10022 11.7612 2.14062 13.5137Z" fill="#FDCE86"></path>
      </g>
    </g>
  </g>
  <g clip-path="url(#clip3_380_1871)">
    <g clip-path="url(#clip4_380_1871)">
      <g clip-path="url(#clip5_380_1871)">
        <path d="M50.1831 30.837C45.053 30.837 41.3438 27.1106 41.3438 21.964C41.3438 16.8357 45.0715 13.1094 50.1831 13.1094C53.8924 13.1094 55.9223 15.0647 56.3467 15.5259L54.7043 18.1639C54.2061 17.7026 52.6006 16.3929 50.4046 16.3929C47.3781 16.3929 45.1822 18.7173 45.1822 21.927C45.1822 23.4212 45.6989 24.8233 46.64 25.8562C47.6181 26.9446 49.0021 27.5349 50.5522 27.5349C52.8405 27.5349 54.6306 26.1515 55.3502 25.4873C55.5532 26.5757 55.9223 27.5718 56.4759 28.4942C55.6454 29.232 53.4864 30.837 50.1831 30.837Z" fill="white"></path>
        <path d="M104.788 30.5588C102.13 30.9277 99.5469 30.153 99.5469 26.279V12.3516H102.905V25.7625C102.905 27.2567 103.551 27.8471 104.788 27.7364V30.5588Z" fill="white"></path>
        <path d="M64.3381 16.6328C60.2229 16.6328 56.8828 19.5843 56.8828 23.7349C56.8828 27.9039 60.2045 30.8371 64.3566 30.8371C68.4718 30.8371 71.8119 27.9039 71.8119 23.7349C71.8119 19.5843 68.4902 16.6328 64.3381 16.6328ZM64.375 27.9593C62.1606 27.9593 60.3337 26.2622 60.3337 23.7349C60.3337 21.2446 62.1791 19.5106 64.375 19.5106C66.5526 19.5106 68.398 21.2446 68.398 23.7349C68.3795 26.2622 66.5526 27.9593 64.375 27.9593Z" fill="white"></path>
        <path d="M81.7024 16.8158V20.1364C77.9378 19.4353 76.9044 23.18 76.9044 25.1355V30.5035H73.5273V16.9449H76.7752V20.1547C77.3842 18.2179 79.6356 16.3915 81.7024 16.8158Z" fill="white"></path>
        <path d="M93.5504 16.9454V18.0891C92.3695 17.1483 90.8562 16.6133 89.2692 16.6133C85.0987 16.6133 82.0723 19.6017 82.0723 23.7339C82.0723 25.597 82.755 27.331 83.9914 28.6408C85.3016 30.0427 87.1655 30.799 89.2323 30.799C90.93 30.799 92.3695 30.3194 93.5504 29.3786V30.4855H96.7983V16.9269H93.5504V16.9454ZM89.546 27.9029C87.3316 27.9029 85.5046 26.2058 85.5046 23.6785C85.5046 21.1698 87.3316 19.4542 89.546 19.4542C91.7235 19.4542 93.5689 21.1882 93.5689 23.6785C93.5689 26.1873 91.7235 27.9029 89.546 27.9029Z" fill="white"></path>
        <path d="M107.408 25.6163C107.408 30.2649 110.49 31.1503 112.558 30.7445V29.7115C110.989 29.9513 108.589 29.2872 108.589 25.5978V18.1452H112.262V17.0753H108.589V13.2383H107.408V25.6163Z" fill="white"></path>
        <path d="M120.898 18.1267C118.019 17.5733 115.658 20.8753 115.658 24.6016V30.6707H114.477V17.0937H115.658V20.5064C116.377 18.4219 118.241 16.4295 120.898 16.9461V18.1267Z" fill="white"></path>
        <path d="M167.753 30.782C166.534 31.0034 164.504 30.5238 164.504 27.9044V12.5195H165.667V27.6092C165.667 29.5646 166.719 29.8228 167.753 29.6937V30.782Z" fill="white"></path>
        <path d="M133.632 17.1128V20.1197C132.451 18.1459 130.329 16.873 127.763 16.873C123.778 16.873 120.641 19.9721 120.641 23.9567C120.641 25.8937 121.36 27.683 122.671 28.9743C123.999 30.3025 125.808 31.0219 127.763 31.0219C129.72 31.0219 131.51 30.3025 132.838 28.9743C133.152 28.6607 133.411 28.3287 133.632 27.9781V30.6899H134.813V17.1128H133.632ZM127.782 29.9889C124.423 29.9889 121.895 27.3879 121.895 23.9567C121.895 20.5809 124.479 17.9245 127.782 17.9245C130.993 17.9245 133.521 20.4517 133.65 23.7169V24.1966C133.521 27.4985 131.049 29.9889 127.782 29.9889Z" fill="white"></path>
        <path d="M155.739 16.6875C151.754 16.6875 149.004 19.8235 149.004 23.845C149.004 25.8004 149.724 27.6082 151.034 28.9364C152.362 30.283 154.152 31.0024 156.127 31.0024C158.009 31.0024 159.762 30.3199 161.054 29.047L160.408 28.0694C159.356 29.2315 157.843 29.9325 156.109 29.9325C152.75 29.9325 150.222 27.3131 150.222 23.845H161.792C162.235 19.6206 159.652 16.6875 155.739 16.6875ZM155.739 17.739C158.673 17.739 160.648 19.9527 160.611 22.7751H150.314C150.72 19.8789 152.786 17.739 155.739 17.739Z" fill="white"></path>
        <path d="M147.287 17.1133L143.136 27.665C142.877 28.3475 142.656 29.1777 142.656 29.1777H142.6C142.6 29.1777 142.378 28.3475 142.121 27.665L137.968 17.1133H136.713L142.065 30.6904H143.19L148.506 17.1133H147.287Z" fill="white"></path>
        <path d="M5.18542 34.582C8.43329 37.8657 12.936 39.8948 17.9 39.8948C22.8642 39.8948 27.3669 37.8657 30.6147 34.582H5.18542Z" fill="#0077B1"></path>
        <path d="M0.627075 26.7227C1.45749 29.7296 3.04452 32.4228 5.1667 34.5811H30.596C32.7367 32.4228 34.3236 29.7296 35.1356 26.7227H0.627075Z" fill="#78ABDC"></path>
        <path d="M0 22.0006C0 23.6424 0.221446 25.2104 0.627428 26.723H35.1544C35.5604 25.2104 35.7819 23.6424 35.7819 22.0006C35.7819 21.1336 35.7081 20.2666 35.5973 19.418H0.184538C0.0738151 20.2666 0 21.1336 0 22.0006Z" fill="#E84E0F"></path>
        <path d="M2.13969 13.5156C1.16165 15.3234 0.497307 17.3157 0.183594 19.4186H35.5964C35.2826 17.3157 34.6184 15.3234 33.6403 13.5156H2.13969Z" fill="#FAB60D"></path>
        <path d="M29.9878 8.82986C26.8138 5.89678 22.5694 4.10742 17.9006 4.10742C13.2318 4.10742 8.98743 5.89678 5.79492 8.82986H29.9878Z" fill="#EE762D"></path>
        <path d="M2.14062 13.5137H33.6412C32.6816 11.7428 31.4452 10.1563 29.9874 8.82812H5.79448C4.33662 10.1748 3.10022 11.7612 2.14062 13.5137Z" fill="#FDCE86"></path>
      </g>
    </g>
  </g>
  <defs>
    <clipPath id="clip0_380_1871">
      <rect width="168" height="36" fill="white" transform="translate(0 4)"></rect>
    </clipPath>
    <clipPath id="clip1_380_1871">
      <rect width="168" height="36" fill="white" transform="translate(0 4)"></rect>
    </clipPath>
    <clipPath id="clip2_380_1871">
      <rect width="168" height="35.787" fill="white" transform="translate(0 4.10742)"></rect>
    </clipPath>
    <clipPath id="clip3_380_1871">
      <rect width="168" height="36" fill="white" transform="translate(0 4)"></rect>
    </clipPath>
    <clipPath id="clip4_380_1871">
      <rect width="168" height="36" fill="white" transform="translate(0 4)"></rect>
    </clipPath>
    <clipPath id="clip5_380_1871">
      <rect width="168" height="35.787" fill="white" transform="translate(0 4.10742)"></rect>
    </clipPath>
  </defs>
</svg>
