<?xml version="1.0" encoding="UTF-8"?>
<svg xmlns="http://www.w3.org/2000/svg" width="100" height="125" viewBox="0 0 100 125" fill="none">
  <path d="M32 41V59C32 68.9 40.1 77 50 77C59.9 77 68 68.9 68 59V41C68 31.1 59.9 23 50 23C40.1 23 32 31.1 32 41ZM50 27C57.7 27 64 33.3 64 41V59C64 66.7 57.7 73 50 73C42.3 73 36 66.7 36 59V41C36 33.3 42.3 27 50 27Z" fill="white"></path>
  <path d="M50 44C51.1 44 52 43.1 52 42V36C52 34.9 51.1 34 50 34C48.9 34 48 34.9 48 36V42C48 43.1 48.9 44 50 44Z" fill="white"></path>
  <path d="M48.6 92.4C49 92.8 49.5 93 50 93C50.5 93 51 92.8 51.4 92.4L56.4 87.4C57.2 86.6 57.2 85.4 56.4 84.6C55.6 83.8 54.4 83.8 53.6 84.6L50 88.2L46.4 84.6C45.6 83.8 44.4 83.8 43.6 84.6C42.8 85.4 42.8 86.6 43.6 87.4L48.6 92.4Z" fill="white"></path>
  <path d="M48.6 7.6L43.6 12.6C42.8 13.4 42.8 14.6 43.6 15.4C44 15.8 44.5 16 45 16C45.5 16 46 15.8 46.4 15.4L50 11.8L53.6 15.4C54 15.8 54.5 16 55 16C55.5 16 56 15.8 56.4 15.4C57.2 14.6 57.2 13.4 56.4 12.6L51.4 7.6C50.6 6.8 49.4 6.8 48.6 7.6Z" fill="white"></path>
</svg>
