<?xml version="1.0" encoding="UTF-8"?>
<svg xmlns="http://www.w3.org/2000/svg" width="11" height="11" viewBox="0 0 11 11" fill="none">
  <g clip-path="url(#clip0_380_1951)">
    <path d="M5.19668 0.441232C5.25363 0.325852 5.37113 0.252808 5.49982 0.252808C5.6285 0.252785 5.74602 0.32583 5.80297 0.44121L7.12154 3.11252C7.24554 3.3637 7.48518 3.53784 7.76241 3.5781L10.7105 4.00666C10.8379 4.02518 10.9436 4.11436 10.9834 4.23675C11.0232 4.35912 10.99 4.49347 10.8979 4.58329L8.76478 6.66284C8.5642 6.85841 8.47267 7.14012 8.51999 7.41618L9.02331 10.3519C9.04505 10.4788 8.99291 10.6069 8.8888 10.6825C8.78471 10.7582 8.6467 10.7681 8.53282 10.7082L5.8959 9.32221C5.64796 9.19188 5.35174 9.19188 5.10375 9.32225L2.46708 10.7082C2.35317 10.7681 2.21516 10.7581 2.11107 10.6825C2.00696 10.6068 1.95485 10.4786 1.97659 10.3519L2.48013 7.41632C2.52751 7.14016 2.43597 6.85841 2.23534 6.66279L0.102097 4.58332C0.00997129 4.49349 -0.0232145 4.35914 0.0165549 4.23677C0.0563242 4.11441 0.162108 4.02523 0.28945 4.00668L3.23747 3.57815C3.5147 3.53784 3.75436 3.36372 3.87836 3.1125L5.19668 0.441232Z" fill="white"></path>
  </g>
  <defs>
    <clipPath id="clip0_380_1951">
      <rect width="11" height="11" fill="white"></rect>
    </clipPath>
  </defs>
</svg>
