<?xml version="1.0" encoding="UTF-8"?>
<svg xmlns="http://www.w3.org/2000/svg" width="30" height="20" viewBox="0 0 30 20" fill="none">
  <path d="M0 0H29.4002V19.7603H0V0Z" fill="#D6D4D1"></path>
  <path d="M0.243225 0.242493H29.1614V19.5203H0.243225V0.242493Z" fill="#E00E1B"></path>
  <path d="M16.2925 12.4446C15.5661 13.2508 14.5283 13.7132 13.445 13.7132C11.3321 13.7132 9.61363 11.9946 9.61363 9.88171C9.61363 7.76893 11.3321 6.05049 13.445 6.05049C14.5283 6.05049 15.5661 6.51288 16.2925 7.31987C16.2949 7.32231 16.2985 7.324 16.3035 7.324C16.3109 7.32315 16.3167 7.31818 16.3167 7.31077C16.3167 7.30664 16.3149 7.30251 16.3117 7.29997C15.4216 5.89861 13.901 5.06262 12.2436 5.06262C9.58537 5.06262 7.42358 7.22441 7.42358 9.88182C7.42358 12.5392 9.58537 14.7012 12.2436 14.7012C13.9015 14.7012 15.4232 13.8634 16.314 12.4605C16.3182 12.4547 16.3164 12.4473 16.3109 12.4423C16.305 12.4389 16.2967 12.4389 16.2925 12.4446Z" fill="white"></path>
  <path d="M20.2783 8.46142C20.2752 8.45645 20.2684 8.45476 20.2633 8.45645L18.6113 8.99272L17.5918 7.58892C17.5885 7.58395 17.5819 7.58141 17.5761 7.58395C17.5702 7.58564 17.5669 7.59061 17.5669 7.59633V9.33223L15.9156 9.8685C15.9098 9.87093 15.9065 9.87601 15.9065 9.88173C15.9065 9.88755 15.9098 9.89252 15.9156 9.89496L17.5669 10.4312V12.167C17.5669 12.173 17.5702 12.1779 17.5761 12.1803H17.5803C17.5852 12.1803 17.5885 12.1786 17.5918 12.1753L18.6113 10.7707L20.2633 11.3069C20.2683 11.3087 20.2747 11.3069 20.2783 11.3019C20.2816 11.297 20.2816 11.2911 20.2783 11.2863L19.2573 9.88162L20.2783 8.47698C20.2815 8.47307 20.2815 8.4664 20.2783 8.46142Z" fill="white"></path>
</svg>
